#!OML:ASF E:/inclinewalkrobotboard/Project1/Captureday1/Session1/subject1.ASF
:FULLY-SPECIFIED
:DEGREES
326
root 0 0 0 -1.2944585350316775 -0.6899071841067232 3.606504225916152
lowerback 10.278350481990039 -0.7715630008136071 -4.633585104364077
upperback 0.8220349405856133 -1.6082622618642584 0.46159169071359574
thorax -4.754649211813014 -0.6871150106816288 3.3142458433759394
lowerneck -15.652943953791368 -2.622680994655142 -3.008160789494014
upperneck 11.549798498890535 -3.0544812332619937 1.8841216618218108
head 5.904250149978431 -1.5791967318542148 0.8042651933949914
rclavicle 3.4854609489183803E-16 1.3766620996327754E-15
rhumerus -32.058378894047635 -24.024827429760037 -80.34894777591859
rradius 22.94329404149748
rwrist 11.867595368216396
rhand -19.771263849215913 25.564696927056353
rfingers 7.125020000000003
rthumb 6.584071376089816 -4.508337293107466
lclavicle 4.8747347787231586E-15 1.7396157419857373E-15
lhumerus -26.610299153116706 -5.57913890303813 83.37358961505876
lradius 32.579933575854724
lwrist 8.85731949834264
lhand -28.205214985938014 24.734320425283745
lfingers 7.125020000000014
lthumb -1.6146415403827898 54.67790115522786
rfemur -31.808700077689966 3.1095144605871625 20.591919489378
rtibia 43.5188717794463
rfoot -4.6715776444249535 -10.34604013855075
rtoes 3.005479943834871
lfemur 9.941838795005282 -6.072891303222621 -28.617806874579806
ltibia 16.46140652107355
lfoot -16.384165386762806 0.020943982853161902
ltoes -0.6102934443622559
327
root 0 0 0 -0.8781002896206762 0.07109184026785265 3.016600106538775
lowerback 9.79069066968868 -1.0320631142441554 -4.5009635595219395
upperback 0.5808714213089918 -1.8940235242924255 0.8755281563491025
thorax -4.71028562875997 -0.8252218728673655 3.700854429321459
lowerneck -15.410509278284017 -2.7312691064771424 -3.0835363257941495
upperneck 13.005039803846403 -3.2246206061141525 2.0288052457249903
head 6.431718260297135 -1.6466774416174845 0.8383641901034122
rclavicle 1.0776012741200712E-15 1.103961586722368E-15
rhumerus -32.349513090405566 -24.95172826542517 -80.0655946522924
rradius 22.257251857679265
rwrist 11.54959193598961
rhand -19.707467617683214 25.256781675088376
rfingers 7.125020000000004
rthumb 6.645977613153805 -4.811441588155635
lclavicle 5.861254997670001E-15 1.836985673408731E-15
lhumerus -26.37769709281709 -5.478924863815984 83.03604859661516
lradius 32.578475167845674
lwrist 8.774493899851503
lhand -28.271533233830937 24.640749371942256
lfingers 7.125020000000015
lthumb -1.679632799619169 54.592286494769795
rfemur -30.39457138845971 4.46478686647748 21.359898709327272
rtibia 35.435158451273
rfoot -7.707268840701313 -11.394030280905117
rtoes 0.5489780333966472
lfemur 10.955519163040105 -6.340626557942115 -28.301274261327677
ltibia 16.54022100620101
lfoot -15.712618979757687 -0.41025627405087794
ltoes -1.9684232032159557
328
root 0 0 0 -0.783420207828532 0.7408393840166889 2.3265451559219117
lowerback 9.44524622704418 -1.2651910820715826 -4.269070174883095
upperback 0.3462970311756579 -2.1114361505041943 1.3661200028471345
thorax -4.745497264966946 -0.9322807403253119 4.10607668263516
lowerneck -15.719773335611535 -2.878721942119288 -3.1847211530235655
upperneck 15.443066024696245 -3.4441410044025744 2.0077583074900702
head 7.393573375842823 -1.7333823740854912 0.800943020296021
rclavicle 1.5886673934658063E-15 1.074061067280797E-15
rhumerus -32.71842106783767 -25.891828323911707 -79.72477279975978
rradius 21.384034507848952
rwrist 11.141880038164878
rhand -19.55174847682111 24.93738322307069
rfingers 7.1250200000000055
rthumb 6.795974922443256 -5.115348066652924
lclavicle 6.559202071545669E-15 2.044385001491821E-15
lhumerus -26.34281039238948 -5.1459277216552985 82.7569293683875
lradius 32.25758367866004
lwrist 8.585423281635283
lhand -28.349015209375153 24.76099338605226
lfingers 7.125020000000019
lthumb -1.7517066036376043 54.72302998846314
rfemur -28.493113129278814 5.119259768795082 21.752787199850502
rtibia 31.17492585503716
rfoot -8.95339304517714 -11.37027561088359
rtoes -0.4293883083242893
lfemur 11.963180163709666 -6.405931234652041 -27.72768248277828
ltibia 17.691534481531008
lfoot -14.657878335032036 -1.2006999136692298
ltoes -4.220036290350375
329
root 0 0 0 -0.9950188712548225 0.9601742811412644 1.6407494010264423
lowerback 8.699750077716125 -1.4042147410662578 -3.8439108795390595
upperback -0.040849350379907924 -2.194342997174501 1.7422728504957088
thorax -4.7474238490754646 -0.9804187517879412 4.276743802862494
lowerneck -16.597729334778563 -2.91014106623528 -3.184668968678665
upperneck 17.712069249504033 -3.4789132012235697 1.646972264297285
head 8.33372600378805 -1.7481491266710023 0.6511701857501575
rclavicle 1.8997983950836178E-15 9.821504197347153E-16
rhumerus -33.21810319999325 -26.84100597098573 -79.37430210454754
rradius 20.237958919407646
rwrist 10.493808333417626
rhand -19.31980614692531 24.623583969757203
rfingers 7.125020000000008
rthumb 7.019400988752017 -5.405467879106574
lclavicle 6.707855111648025E-15 2.099141655976903E-15
lhumerus -26.508631218927423 -4.785223924883254 82.66501802631826
lradius 31.869412461523112
lwrist 8.417097603500286
lhand -28.386821775457936 24.958005812911125
lfingers 7.1250200000000214
lthumb -1.7828497352454455 54.92694081255294
rfemur -26.83433228671273 5.428262403090704 22.38256357719259
rtibia 29.80426738591668
rfoot -9.308091148429089 -10.802877507209335
rtoes -0.05894013847710533
lfemur 12.707155248567048 -6.215842914447201 -26.91434070245296
ltibia 20.25012022658653
lfoot -13.238873387070468 -2.3542312035335926
ltoes -6.9560884125290094
